# xmcd CD database file
#
# Track frame offsets:
#	150
#	51444
#	67475
#	74991
#	84209
#	91314
#	105486
#	115919
#	130312
#	151240
#	159230
#
# Disc length: 2302 seconds
#
# Revision: 1
# Processed by: cddbd v1.5.2PL0 Copyright (c) Steve Scherf et al.
# Submitted via: CDex 1.40Beta9
#
DISCID=9808fc0b
DTITLE=HUMPHREY and the DUMPTRUCKS - Six Days of Paper Ladies
DYEAR=1971
DGENRE=Folk
TTITLE0=Merry Mansion Quadrology
TTITLE1=Man From The City
TTITLE2=Pretty Mairi
TTITLE3=Six Days Of Paper Ladies
TTITLE4=Send Me Some Word
TTITLE5=Clyde Beattie
TTITLE6=Listen To The Lullaby
TTITLE7=Calgary Song
TTITLE8=Alone In Manitoba
TTITLE9=Dobro Song
TTITLE10=Don't Bite The Hand
EXTD=YEAR: 1971 ID3G: 80
EXTT0=
EXTT1=
EXTT2=
EXTT3=
EXTT4=
EXTT5=
EXTT6=
EXTT7=
EXTT8=
EXTT9=
EXTT10=
PLAYORDER=
